<mxfile host="Electron" agent="Mozilla/5.0 (Windows NT 10.0; Win64; x64) AppleWebKit/537.36 (KHTML, like Gecko) draw.io/26.0.9 Chrome/128.0.6613.186 Electron/32.2.5 Safari/537.36" version="26.0.9">
  <diagram name="Level 1 DFD" id="0">
    <mxGraphModel dx="1621" dy="511" grid="1" gridSize="10" guides="1" tooltips="1" connect="1" arrows="1" fold="1" page="1" pageScale="1" pageWidth="827" pageHeight="1169" math="0" shadow="0">
      <root>
        <mxCell id="0" />
        <mxCell id="1" parent="0" />
        <mxCell id="2" value="Passenger" style="shape=rectangle;strokeColor=#000000;fillColor=#FFFFFF;" parent="1" vertex="1">
          <mxGeometry x="-260" y="50" width="120" height="40" as="geometry" />
        </mxCell>
        <mxCell id="3" value="Airline Admin" style="shape=rectangle;strokeColor=#000000;fillColor=#FFFFFF;" parent="1" vertex="1">
          <mxGeometry x="60" y="320" width="120" height="40" as="geometry" />
        </mxCell>
        <mxCell id="4" value="Payment Gateway" style="shape=rectangle;strokeColor=#000000;fillColor=#FFFFFF;" parent="1" vertex="1">
          <mxGeometry x="660" y="350" width="120" height="40" as="geometry" />
        </mxCell>
        <mxCell id="5" value="1.0 Check Flight &#xa;Availability" style="shape=ellipse;strokeColor=#000000;fillColor=#D9EAD3;" parent="1" vertex="1">
          <mxGeometry x="270" y="30" width="110" height="110" as="geometry" />
        </mxCell>
        <mxCell id="6" value="2.0 Book Flight" style="shape=ellipse;strokeColor=#000000;fillColor=#D9EAD3;" parent="1" vertex="1">
          <mxGeometry x="260" y="170" width="120" height="110" as="geometry" />
        </mxCell>
        <mxCell id="7" value="3.0 Process Payment" style="shape=ellipse;strokeColor=#000000;fillColor=#D9EAD3;" parent="1" vertex="1">
          <mxGeometry x="240" y="430" width="140" height="100" as="geometry" />
        </mxCell>
        <mxCell id="8" value="4.0 Notify Passenger" style="shape=ellipse;strokeColor=#000000;fillColor=#D9EAD3;" parent="1" vertex="1">
          <mxGeometry x="290" y="530" width="140" height="110" as="geometry" />
        </mxCell>
        <mxCell id="9" value="5.0 Update Flight &#xa;Schedules" style="shape=ellipse;strokeColor=#000000;fillColor=#D9EAD3;" parent="1" vertex="1">
          <mxGeometry x="260" y="290" width="120" height="100" as="geometry" />
        </mxCell>
        <mxCell id="14" value="Data Flow" style="edgeStyle=elbowEdgeStyle;strokeColor=#000000;rounded=1;" parent="1" source="2" target="5" edge="1">
          <mxGeometry relative="1" as="geometry" />
        </mxCell>
        <mxCell id="15" value="Data Flow" style="edgeStyle=elbowEdgeStyle;strokeColor=#000000;rounded=1;" parent="1" source="5" edge="1">
          <mxGeometry relative="1" as="geometry">
            <mxPoint x="630" y="80" as="targetPoint" />
          </mxGeometry>
        </mxCell>
        <mxCell id="16" value="Data Flow" style="edgeStyle=elbowEdgeStyle;strokeColor=#000000;rounded=1;" parent="1" source="2" target="6" edge="1">
          <mxGeometry relative="1" as="geometry" />
        </mxCell>
        <mxCell id="17" value="Data Flow" style="edgeStyle=elbowEdgeStyle;strokeColor=#000000;rounded=1;entryX=0;entryY=0.5;entryDx=0;entryDy=0;" parent="1" source="6" edge="1" target="N_6owDZYqDdtJkHOzBS0-26">
          <mxGeometry relative="1" as="geometry">
            <mxPoint x="670" y="280" as="targetPoint" />
          </mxGeometry>
        </mxCell>
        <mxCell id="18" value="Data Flow" style="edgeStyle=elbowEdgeStyle;strokeColor=#000000;rounded=1;" parent="1" source="2" target="7" edge="1">
          <mxGeometry relative="1" as="geometry" />
        </mxCell>
        <mxCell id="19" value="Data Flow" style="edgeStyle=elbowEdgeStyle;strokeColor=#000000;rounded=1;" parent="1" source="7" target="4" edge="1">
          <mxGeometry relative="1" as="geometry" />
        </mxCell>
        <mxCell id="20" value="Data Flow" style="edgeStyle=elbowEdgeStyle;strokeColor=#000000;rounded=1;" parent="1" source="7" edge="1">
          <mxGeometry relative="1" as="geometry">
            <mxPoint x="690" y="480" as="targetPoint" />
          </mxGeometry>
        </mxCell>
        <mxCell id="21" value="Data Flow" style="edgeStyle=elbowEdgeStyle;strokeColor=#000000;rounded=1;" parent="1" source="9" edge="1">
          <mxGeometry relative="1" as="geometry">
            <mxPoint x="630" y="80" as="targetPoint" />
          </mxGeometry>
        </mxCell>
        <mxCell id="22" value="Data Flow" style="edgeStyle=elbowEdgeStyle;strokeColor=#000000;rounded=1;" parent="1" source="8" edge="1">
          <mxGeometry relative="1" as="geometry">
            <mxPoint x="250" y="710" as="targetPoint" />
          </mxGeometry>
        </mxCell>
        <mxCell id="23" value="Data Flow" style="edgeStyle=elbowEdgeStyle;strokeColor=#000000;rounded=1;" parent="1" target="2" edge="1">
          <mxGeometry relative="1" as="geometry">
            <mxPoint x="130" y="710" as="sourcePoint" />
          </mxGeometry>
        </mxCell>
        <mxCell id="N_6owDZYqDdtJkHOzBS0-23" value="" style="endArrow=classic;html=1;rounded=0;entryX=0;entryY=0.5;entryDx=0;entryDy=0;exitX=1;exitY=0.5;exitDx=0;exitDy=0;" parent="1" source="3" target="9" edge="1">
          <mxGeometry width="50" height="50" relative="1" as="geometry">
            <mxPoint x="180" y="320" as="sourcePoint" />
            <mxPoint x="230" y="270" as="targetPoint" />
            <Array as="points" />
          </mxGeometry>
        </mxCell>
        <mxCell id="N_6owDZYqDdtJkHOzBS0-24" value="Notification logs" style="html=1;dashed=0;whiteSpace=wrap;shape=partialRectangle;right=0;fillColor=#1ba1e2;fontColor=#ffffff;strokeColor=#006EAF;" parent="1" vertex="1">
          <mxGeometry x="130" y="690" width="120" height="40" as="geometry" />
        </mxCell>
        <mxCell id="N_6owDZYqDdtJkHOzBS0-25" value="Payment Records" style="html=1;dashed=0;whiteSpace=wrap;shape=partialRectangle;right=0;fillColor=#1ba1e2;fontColor=#ffffff;strokeColor=#006EAF;" parent="1" vertex="1">
          <mxGeometry x="690" y="460" width="120" height="40" as="geometry" />
        </mxCell>
        <mxCell id="N_6owDZYqDdtJkHOzBS0-26" value="Passenger database" style="html=1;dashed=0;whiteSpace=wrap;shape=partialRectangle;right=0;fillColor=#1ba1e2;fontColor=#ffffff;strokeColor=#006EAF;" parent="1" vertex="1">
          <mxGeometry x="690" y="260" width="120" height="40" as="geometry" />
        </mxCell>
        <mxCell id="N_6owDZYqDdtJkHOzBS0-27" value="Flight database" style="html=1;dashed=0;whiteSpace=wrap;shape=partialRectangle;right=0;fillColor=#1ba1e2;fontColor=#ffffff;strokeColor=#006EAF;" parent="1" vertex="1">
          <mxGeometry x="630" y="60" width="120" height="40" as="geometry" />
        </mxCell>
        <mxCell id="N_6owDZYqDdtJkHOzBS0-29" style="edgeStyle=orthogonalEdgeStyle;rounded=0;orthogonalLoop=1;jettySize=auto;html=1;exitX=0.5;exitY=0;exitDx=0;exitDy=0;entryX=0.571;entryY=0;entryDx=0;entryDy=0;entryPerimeter=0;" parent="1" source="7" target="7" edge="1">
          <mxGeometry relative="1" as="geometry" />
        </mxCell>
      </root>
    </mxGraphModel>
  </diagram>
</mxfile>
